<svg xmlns="http://www.w3.org/2000/svg" viewBox="0 0 100 100" width="1024" height="1024">
  <title>OpenExamTrainer — Stern, gefüllt</title>
  <!--
    One of four candidates. Apply with:
      scripts/set-icon.ps1 star
    Black on an opaque white square rather than black on transparency: a transparent monochrome
    mark disappears into a dark taskbar. The mortarboard's tassel hangs left so the badge can own
    the top right corner without the two overlapping.
  -->
  <rect width="100" height="100" rx="22" fill="#fff"/>

  <g transform="translate(50,48) scale(0.66) translate(-50,-50)">
    <ellipse cx="32" cy="88" rx="15" ry="7"/>
    <ellipse cx="68" cy="88" rx="15" ry="7"/>
    <path d="M50 8c15 0 24 12 24 26 0 6-2 9 2 16 4 8 9 17 9 26 0 9-15 16-35 16s-35-7-35-16c0-9 5-18 9-26 4-7 2-10 2-16 0-14 9-26 24-26Z"/>
    <ellipse cx="50" cy="70" rx="21" ry="22" fill="#fff"/>
    <circle cx="42" cy="29" r="7" fill="#fff"/>
    <circle cx="58" cy="29" r="7" fill="#fff"/>
    <circle cx="44" cy="30" r="3"/>
    <circle cx="56" cy="30" r="3"/>
    <path d="M50 37c6 0 10 2 10 5s-4 5-10 5-10-2-10-5 4-5 10-5Z" fill="#fff"/>
  </g>

  <g transform="rotate(-6 50 78)">
    <rect x="22" y="63" width="56" height="31" rx="2.5" fill="#fff" stroke="#000" stroke-width="4.5"/>
    <path d="M32 74h36M32 83h25" stroke="#000" stroke-width="4.5" fill="none" stroke-linecap="round"/>
  </g>

  <path d="M50 5 82 17 50 29 18 17Z"/>
  <path d="M21 19v12" stroke="#000" stroke-width="4.5" fill="none" stroke-linecap="round"/>
  <circle cx="21" cy="34" r="5"/>

  <path d="M79 4 84 17 98 17 87 26 91 40 79 31 67 40 71 26 60 17 74 17Z" fill="#2D6BE4"/>
</svg>
